<svg width="178" height="61" viewBox="0 0 178 61" fill="none" xmlns="http://www.w3.org/2000/svg">
<path fill-rule="evenodd" clip-rule="evenodd" d="M30.5 3H147.5C162.688 3 175 15.3122 175 30.5C175 45.6878 162.688 58 147.5 58H30.5C15.3122 58 3 45.6878 3 30.5C3 15.3122 15.3122 3 30.5 3ZM0 30.5C0 13.6553 13.6553 0 30.5 0H147.5C164.345 0 178 13.6553 178 30.5C178 47.3447 164.345 61 147.5 61H30.5C13.6553 61 0 47.3447 0 30.5ZM57.4668 18.8887H53.502V39H59.0254C61.0124 39 62.5938 38.444 63.7695 37.332C64.9544 36.2109 65.5469 34.8438 65.5469 33.2305C65.5469 32.4375 65.3874 31.7038 65.0684 31.0293C64.7585 30.3457 64.321 29.7669 63.7559 29.293C63.1908 28.8099 62.3841 28.3906 61.3359 28.0352C62.1836 27.5794 62.8262 26.987 63.2637 26.2578C63.7012 25.5195 63.9199 24.7038 63.9199 23.8105C63.9199 22.8535 63.6693 21.9831 63.168 21.1992C62.6758 20.4154 62.0013 19.8366 61.1445 19.4629C60.2878 19.0801 59.0618 18.8887 57.4668 18.8887ZM55.4707 27.2969V20.8574H57.7949C59.1986 20.8574 60.2194 21.1217 60.8574 21.6504C61.5046 22.1699 61.8281 22.89 61.8281 23.8105C61.8281 24.4941 61.6367 25.1185 61.2539 25.6836C60.8711 26.2396 60.3516 26.6497 59.6953 26.9141C59.0391 27.1693 58.0137 27.2969 56.6191 27.2969H55.4707ZM55.4707 37.0312V29.3203H56.6055C58.3008 29.3203 59.4902 29.4023 60.1738 29.5664C61.1947 29.8125 61.9967 30.2682 62.5801 30.9336C63.1634 31.599 63.4551 32.3783 63.4551 33.2715C63.4551 33.9824 63.2454 34.6432 62.8262 35.2539C62.416 35.8646 61.8691 36.3158 61.1855 36.6074C60.502 36.89 59.4264 37.0312 57.959 37.0312H55.4707ZM69.8125 24.125H67.5156L72.6152 31.1934L66.9824 39H69.2656L73.75 32.752L78.3027 39H80.627L74.8984 31.1934L79.9844 24.125H77.6875L73.75 29.6348L69.8125 24.125ZM95.3926 26.2305C93.8887 24.5716 91.9928 23.7422 89.7051 23.7422C87.4082 23.7422 85.5078 24.5762 84.0039 26.2441C82.6367 27.7572 81.9531 29.5436 81.9531 31.6035C81.9531 33.6816 82.6732 35.5 84.1133 37.0586C85.5625 38.6081 87.4264 39.3828 89.7051 39.3828C91.9746 39.3828 93.8294 38.6081 95.2695 37.0586C96.7188 35.5 97.4434 33.6816 97.4434 31.6035C97.4434 29.5345 96.7598 27.7435 95.3926 26.2305ZM85.6172 27.3789C86.7565 26.2031 88.1191 25.6152 89.7051 25.6152C91.2819 25.6152 92.64 26.2031 93.7793 27.3789C94.9277 28.5547 95.502 29.9766 95.502 31.6445C95.502 32.7201 95.2422 33.7227 94.7227 34.6523C94.2031 35.582 93.5013 36.3021 92.6172 36.8125C91.7331 37.3138 90.7624 37.5645 89.7051 37.5645C88.6478 37.5645 87.6771 37.3138 86.793 36.8125C85.9089 36.3021 85.207 35.582 84.6875 34.6523C84.168 33.7227 83.9082 32.7201 83.9082 31.6445C83.9082 29.9766 84.4779 28.5547 85.6172 27.3789ZM106.877 24.125L101.135 37.373H99.3301V40.9824H101.217V39H113.521V40.9004H115.367V37.373H113.576L107.875 24.125H106.877ZM102.994 37.373L107.342 27.0781L111.512 37.373H102.994Z" fill="white"/>
</svg>
